Title                            : The Boat That Rocked
Year                             : 2009
Genre                            : Comedy | Drama | Music | Romance
iMDB URL                         : http://www.imdb.com/title/tt1131729/

Complete name                    : TBTR-ZEKTORM.avi
Format                           : AVI
File size                        : 702 MiB
Duration                         : 2h 15mn
Overall bit rate                 : 726 Kbps
Subtitles                        : English (Format: srt/VobSub)
Source                           : DVD NTSC

Video
Format                           : MPEG-4 Visual
Format profile                   : Streaming Video@L1
Codec ID                         : XVID
Codec ID/Hint                    : XviD
Duration                         : 2h 15mn
Bit rate                         : 612 Kbps
Width                            : 720 pixels
Height                           : 304 pixels
Display aspect ratio             : 2.35
Frame rate                       : 23.976 fps
Resolution                       : 24 bits
Colorimetry                      : 4:2:0
Scan type                        : Progressive
Bits/(Pixel*Frame)               : 0.117
Stream size                      : 591 MiB (84%)
Writing library                  : XviD

Audio
Format                           : MPEG Audio
Format version                   : Version 1
Format profile                   : Layer 3
Codec ID                         : 55
Codec ID/Hint                    : MP3
Duration                         : 2h 15mn
Bit rate mode                    : Variable
Bit rate                         : 101 Kbps
Minimum bit rate                 : 128 Kbps
Channel(s)                       : 2 channels
Sampling rate                    : 48.0 KHz
Resolution                       : 16 bits
Stream size                      : 97.9 MiB (14%)
Writing library                  : LAME3.98r
Encoding settings                : ABR
